<?xml version="1.0" encoding="UTF-8" standalone="no"?>
<svg width="118.533mm" height="89.9583mm"
 viewBox="0 0 336 255"
 xmlns="http://www.w3.org/2000/svg" xmlns:xlink="http://www.w3.org/1999/xlink"  version="1.2" baseProfile="tiny">
<title>Qt SVG Document</title>
<desc>Generated with Qt</desc>
<defs>
</defs>
<g fill="none" stroke="black" stroke-width="1" fill-rule="evenodd" stroke-linecap="square" stroke-linejoin="bevel" >

<g fill="#ffffff" fill-opacity="1" stroke="none" transform="matrix(1,0,0,1,0,0)"
font-family="MS Shell Dlg 2" font-size="8.25" font-weight="400" font-style="normal" 
>
<path vector-effect="none" fill-rule="evenodd" d="M0,0 L336,0 L336,255 L0,255 L0,0"/>
</g>

<g fill="#000000" fill-opacity="1" stroke="none" transform="matrix(1,0,0,1,0,0)"
font-family="MS Shell Dlg 2" font-size="8.25" font-weight="400" font-style="normal" 
>
<path vector-effect="none" fill-rule="evenodd" d="M186,242 L196,228 L180,226 L186,242"/>
</g>

<g fill="#000000" fill-opacity="1" stroke="none" transform="matrix(1,0,0,1,0,0)"
font-family="MS Shell Dlg 2" font-size="8.25" font-weight="400" font-style="normal" 
>
<path vector-effect="none" fill-rule="evenodd" d="M137,134 L139,147 L149,139 L137,134"/>
</g>

<g fill="#000000" fill-opacity="1" stroke="none" transform="matrix(1,0,0,1,0,0)"
font-family="MS Shell Dlg 2" font-size="8.25" font-weight="400" font-style="normal" 
>
<path vector-effect="none" fill-rule="evenodd" d="M213,115 L203,105 L199,119 L213,115"/>
</g>

<g fill="#000000" fill-opacity="1" stroke="none" transform="matrix(1,0,0,1,0,0)"
font-family="MS Shell Dlg 2" font-size="8.25" font-weight="400" font-style="normal" 
>
<path vector-effect="none" fill-rule="evenodd" d="M63,65 L56,69 L63,73 L63,65"/>
</g>

<g fill="none" stroke="#000000" stroke-opacity="1" stroke-width="1" stroke-linecap="round" stroke-linejoin="round" transform="matrix(1,0,0,1,0,0)"
font-family="MS Shell Dlg 2" font-size="8.25" font-weight="400" font-style="normal" 
>
<polyline fill="none" vector-effect="non-scaling-stroke" points="100,231 98,230 97,230 " />
<polyline fill="none" vector-effect="non-scaling-stroke" points="91,224 90,222 " />
<polyline fill="none" vector-effect="non-scaling-stroke" points="90,214 88,213 87,214 " />
<polyline fill="none" vector-effect="non-scaling-stroke" points="84,216 84,217 " />
<polyline fill="none" vector-effect="non-scaling-stroke" points="86,216 88,217 90,218 92,218 94,217 95,216 96,216 " />
<polyline fill="none" vector-effect="non-scaling-stroke" points="96,221 94,220 92,220 90,220 88,220 88,221 " />
<polyline fill="none" vector-effect="non-scaling-stroke" points="100,225 100,223 101,221 100,219 100,217 99,216 97,214 96,213 94,212 92,212 " />
<polyline fill="none" vector-effect="non-scaling-stroke" points="95,228 96,227 98,225 98,224 98,222 97,220 96,219 " />
<polyline fill="none" vector-effect="non-scaling-stroke" points="96,225 96,224 95,222 94,222 94,221 " />
<polyline fill="none" vector-effect="non-scaling-stroke" points="100,212 98,211 96,210 94,210 92,210 91,210 " />
<polyline fill="none" vector-effect="non-scaling-stroke" points="100,223 99,225 100,227 101,229 102,229 " />
<polyline fill="none" vector-effect="non-scaling-stroke" points="99,206 100,204 100,202 100,200 " />
<polyline fill="none" vector-effect="non-scaling-stroke" points="92,208 94,208 96,208 97,206 98,204 98,203 " />
<polyline fill="none" vector-effect="non-scaling-stroke" points="96,206 96,205 " />
<polyline fill="none" vector-effect="non-scaling-stroke" points="99,204 99,206 99,208 101,209 101,210 " />
<polyline fill="none" vector-effect="non-scaling-stroke" points="110,233 108,232 106,233 104,234 103,236 " />
<polyline fill="none" vector-effect="non-scaling-stroke" points="106,235 107,236 " />
<polyline fill="none" vector-effect="non-scaling-stroke" points="114,236 115,235 " />
<polyline fill="none" vector-effect="non-scaling-stroke" points="119,236 118,234 116,233 115,232 113,231 111,231 " />
<polyline fill="none" vector-effect="non-scaling-stroke" points="119,231 117,230 115,229 113,229 111,229 109,229 107,229 106,230 104,231 " />
<polyline fill="none" vector-effect="non-scaling-stroke" points="107,225 106,225 104,225 102,226 102,228 102,229 " />
<polyline fill="none" vector-effect="non-scaling-stroke" points="106,227 107,227 109,226 110,224 110,222 109,221 " />
<polyline fill="none" vector-effect="non-scaling-stroke" points="109,214 107,213 105,214 104,215 103,217 103,219 104,219 " />
<polyline fill="none" vector-effect="non-scaling-stroke" points="105,215 107,217 109,217 111,217 113,217 115,216 115,215 " />
<polyline fill="none" vector-effect="non-scaling-stroke" points="115,221 113,220 112,219 110,219 108,220 106,221 " />
<polyline fill="none" vector-effect="non-scaling-stroke" points="119,225 120,223 120,221 119,219 119,217 118,215 116,214 115,213 113,212 111,212 " />
<polyline fill="none" vector-effect="non-scaling-stroke" points="111,227 113,227 115,227 117,226 117,224 117,222 116,220 115,219 " />
<polyline fill="none" vector-effect="non-scaling-stroke" points="115,225 115,223 115,222 113,221 " />
<polyline fill="none" vector-effect="non-scaling-stroke" points="119,211 117,211 115,210 113,210 111,210 109,210 107,210 105,211 103,212 " />
<polyline fill="none" vector-effect="non-scaling-stroke" points="119,223 119,225 119,227 120,228 121,229 " />
<polyline fill="none" vector-effect="non-scaling-stroke" points="107,206 105,205 103,206 102,207 101,209 101,210 " />
<polyline fill="none" vector-effect="non-scaling-stroke" points="105,208 107,207 109,206 109,205 109,203 109,202 " />
<polyline fill="none" vector-effect="non-scaling-stroke" points="103,198 103,200 " />
<polyline fill="none" vector-effect="non-scaling-stroke" points="107,198 109,198 111,198 112,198 " />
<polyline fill="none" vector-effect="non-scaling-stroke" points="115,202 113,201 111,200 109,200 107,200 106,201 105,202 " />
<polyline fill="none" vector-effect="non-scaling-stroke" points="119,206 119,204 119,202 119,200 118,198 " />
<polyline fill="none" vector-effect="non-scaling-stroke" points="111,208 113,208 115,208 116,206 117,204 117,202 116,201 115,200 " />
<polyline fill="none" vector-effect="non-scaling-stroke" points="115,206 115,204 114,203 113,202 " />
<polyline fill="none" vector-effect="non-scaling-stroke" points="119,204 118,206 119,207 120,209 121,209 " />
<polyline fill="none" vector-effect="non-scaling-stroke" points="129,232 127,232 125,233 123,234 123,236 " />
<polyline fill="none" vector-effect="non-scaling-stroke" points="125,234 127,236 " />
<polyline fill="none" vector-effect="non-scaling-stroke" points="132,236 134,235 135,234 " />
<polyline fill="none" vector-effect="non-scaling-stroke" points="138,236 137,234 136,233 134,232 132,231 131,231 " />
<polyline fill="none" vector-effect="non-scaling-stroke" points="138,230 137,230 135,229 133,229 131,228 129,229 127,229 125,230 123,231 " />
<polyline fill="none" vector-effect="non-scaling-stroke" points="127,225 125,224 123,225 122,226 121,228 121,229 " />
<polyline fill="none" vector-effect="non-scaling-stroke" points="125,227 127,226 128,225 129,224 129,222 129,221 " />
<polyline fill="none" vector-effect="non-scaling-stroke" points="128,213 127,213 125,213 123,215 122,216 123,218 123,219 " />
<polyline fill="none" vector-effect="non-scaling-stroke" points="125,215 126,216 128,217 130,217 132,216 134,215 " />
<polyline fill="none" vector-effect="non-scaling-stroke" points="134,221 133,220 131,219 129,219 127,219 125,220 125,221 " />
<polyline fill="none" vector-effect="non-scaling-stroke" points="138,225 139,223 139,221 139,219 138,217 137,215 136,214 134,212 132,212 130,211 " />
<polyline fill="none" vector-effect="non-scaling-stroke" points="131,227 133,227 134,227 136,225 137,223 137,221 136,220 134,219 " />
<polyline fill="none" vector-effect="non-scaling-stroke" points="134,225 134,223 134,222 133,221 132,221 " />
<polyline fill="none" vector-effect="non-scaling-stroke" points="138,211 136,210 134,210 132,209 130,209 128,209 126,210 124,210 123,211 " />
<polyline fill="none" vector-effect="non-scaling-stroke" points="138,223 138,225 138,226 140,228 " />
<polyline fill="none" vector-effect="non-scaling-stroke" points="126,205 125,205 123,205 121,207 121,209 " />
<polyline fill="none" vector-effect="non-scaling-stroke" points="124,207 126,207 128,206 129,204 129,202 128,202 " />
<polyline fill="none" vector-effect="non-scaling-stroke" points="122,198 122,199 122,200 " />
<polyline fill="none" vector-effect="non-scaling-stroke" points="127,198 129,198 131,198 " />
<polyline fill="none" vector-effect="non-scaling-stroke" points="134,201 132,200 130,200 129,200 127,200 125,201 124,202 " />
<polyline fill="none" vector-effect="non-scaling-stroke" points="138,205 138,203 139,201 138,199 138,198 " />
<polyline fill="none" vector-effect="non-scaling-stroke" points="130,207 132,208 134,207 136,206 136,204 136,202 135,200 134,200 " />
<polyline fill="none" vector-effect="non-scaling-stroke" points="134,205 134,204 134,202 132,202 132,201 " />
<polyline fill="none" vector-effect="non-scaling-stroke" points="138,203 137,205 138,207 139,209 140,209 " />
<polyline fill="none" vector-effect="non-scaling-stroke" points="148,232 146,232 144,232 143,234 142,235 142,236 " />
<polyline fill="none" vector-effect="non-scaling-stroke" points="144,234 146,235 148,236 " />
<polyline fill="none" vector-effect="non-scaling-stroke" points="150,236 152,235 154,234 " />
<polyline fill="none" vector-effect="non-scaling-stroke" points="158,236 157,234 155,233 154,232 152,231 150,230 " />
<polyline fill="none" vector-effect="non-scaling-stroke" points="158,230 156,229 154,229 152,228 150,228 148,228 146,229 144,229 142,230 " />
<polyline fill="none" vector-effect="non-scaling-stroke" points="146,224 144,224 142,224 141,226 140,228 " />
<polyline fill="none" vector-effect="non-scaling-stroke" points="144,226 146,226 147,225 148,223 148,221 " />
<polyline fill="none" vector-effect="non-scaling-stroke" points="148,213 146,212 144,213 142,214 142,216 142,218 142,219 " />
<polyline fill="none" vector-effect="non-scaling-stroke" points="144,215 145,216 147,217 149,217 151,216 153,215 " />
<polyline fill="none" vector-effect="non-scaling-stroke" points="154,220 152,219 150,219 148,219 146,219 144,220 144,221 " />
<polyline fill="none" vector-effect="non-scaling-stroke" points="157,224 158,222 158,220 158,218 157,216 156,215 155,213 153,212 151,211 150,211 " />
<polyline fill="none" vector-effect="non-scaling-stroke" points="150,226 152,227 154,226 155,225 156,223 156,221 155,219 154,218 " />
<polyline fill="none" vector-effect="non-scaling-stroke" points="154,224 154,223 153,221 152,221 152,220 " />
<polyline fill="none" vector-effect="non-scaling-stroke" points="157,211 155,210 154,209 152,209 150,209 148,209 146,209 144,210 142,211 " />
<polyline fill="none" vector-effect="non-scaling-stroke" points="157,222 157,224 158,226 159,228 " />
<polyline fill="none" vector-effect="non-scaling-stroke" points="146,205 144,205 142,205 141,206 140,208 140,209 " />
<polyline fill="none" vector-effect="non-scaling-stroke" points="144,207 146,207 147,206 148,204 148,202 147,201 " />
<polyline fill="none" vector-effect="non-scaling-stroke" points="141,198 142,199 " />
<polyline fill="none" vector-effect="non-scaling-stroke" points="153,201 152,200 150,199 148,199 146,200 144,201 " />
<polyline fill="none" vector-effect="non-scaling-stroke" points="157,205 158,203 158,201 158,199 157,198 " />
<polyline fill="none" vector-effect="non-scaling-stroke" points="149,207 151,207 153,207 155,206 156,204 155,202 154,200 153,199 " />
<polyline fill="none" vector-effect="non-scaling-stroke" points="153,205 153,203 153,202 152,201 151,201 " />
<polyline fill="none" vector-effect="non-scaling-stroke" points="157,203 157,205 157,207 158,208 159,209 " />
<polyline fill="none" vector-effect="non-scaling-stroke" points="167,232 165,231 163,232 162,233 161,235 161,236 " />
<polyline fill="none" vector-effect="non-scaling-stroke" points="163,234 165,235 167,236 169,236 171,235 173,234 " />
<polyline fill="none" vector-effect="non-scaling-stroke" points="177,236 176,234 175,233 173,231 172,230 170,230 169,230 " />
<polyline fill="none" vector-effect="non-scaling-stroke" points="177,230 175,229 173,228 171,228 169,228 167,228 165,228 163,229 162,230 161,230 " />
<polyline fill="none" vector-effect="non-scaling-stroke" points="165,224 163,224 161,224 160,225 159,227 159,228 " />
<polyline fill="none" vector-effect="non-scaling-stroke" points="163,226 165,226 167,225 168,223 167,221 167,220 " />
<polyline fill="none" vector-effect="non-scaling-stroke" points="167,212 165,212 163,213 162,214 161,216 161,218 " />
<polyline fill="none" vector-effect="non-scaling-stroke" points="163,214 165,216 167,216 169,216 171,216 172,215 173,214 " />
<polyline fill="none" vector-effect="non-scaling-stroke" points="173,220 171,219 169,218 167,218 165,219 164,220 163,220 " />
<polyline fill="none" vector-effect="non-scaling-stroke" points="177,224 177,222 177,220 177,218 177,216 176,214 174,213 173,212 171,211 169,211 " />
<polyline fill="none" vector-effect="non-scaling-stroke" points="169,226 171,226 173,226 174,225 175,223 175,221 174,219 173,218 " />
<polyline fill="none" vector-effect="non-scaling-stroke" points="173,224 173,222 172,221 171,220 " />
<polyline fill="none" vector-effect="non-scaling-stroke" points="176,210 175,210 173,209 171,209 169,209 167,209 165,209 163,210 161,211 " />
<polyline fill="none" vector-effect="non-scaling-stroke" points="177,222 176,224 177,226 178,227 179,228 " />
<polyline fill="none" vector-effect="non-scaling-stroke" points="165,205 163,204 161,205 160,206 159,208 159,209 " />
<polyline fill="none" vector-effect="non-scaling-stroke" points="163,207 165,206 166,205 167,204 167,202 167,201 " />
<polyline fill="none" vector-effect="non-scaling-stroke" points="160,198 161,199 " />
<polyline fill="none" vector-effect="non-scaling-stroke" points="172,201 171,200 169,199 167,199 165,199 163,200 163,201 " />
<polyline fill="none" vector-effect="non-scaling-stroke" points="176,205 177,203 177,201 177,199 177,198 " />
<polyline fill="none" vector-effect="non-scaling-stroke" points="169,207 171,207 173,207 174,205 175,203 175,201 174,200 172,199 " />
<polyline fill="none" vector-effect="non-scaling-stroke" points="173,205 173,203 172,202 171,201 " />
<polyline fill="none" vector-effect="non-scaling-stroke" points="176,203 176,205 176,206 178,208 " />
<polyline fill="none" vector-effect="non-scaling-stroke" points="185,231 183,232 181,233 180,235 " />
<polyline fill="none" vector-effect="non-scaling-stroke" points="188,227 186,228 184,228 182,229 181,230 " />
<polyline fill="none" vector-effect="non-scaling-stroke" points="184,224 183,223 181,224 179,225 179,227 179,228 " />
<polyline fill="none" vector-effect="non-scaling-stroke" points="183,226 184,225 186,224 187,223 187,221 186,220 " />
<polyline fill="none" vector-effect="non-scaling-stroke" points="186,212 184,212 182,212 181,214 180,215 180,217 180,218 " />
<polyline fill="none" vector-effect="non-scaling-stroke" points="182,214 184,215 186,216 188,216 190,215 191,214 192,214 " />
<polyline fill="none" vector-effect="non-scaling-stroke" points="192,220 190,219 189,218 187,218 185,218 183,219 182,220 " />
<polyline fill="none" vector-effect="non-scaling-stroke" points="197,219 196,217 196,215 194,214 193,212 191,211 189,210 188,210 " />
<polyline fill="none" vector-effect="non-scaling-stroke" points="188,226 190,226 " />
<polyline fill="none" vector-effect="non-scaling-stroke" points="194,221 194,219 192,218 " />
<polyline fill="none" vector-effect="non-scaling-stroke" points="192,224 192,222 192,221 190,220 " />
<polyline fill="none" vector-effect="non-scaling-stroke" points="191,208 189,208 187,208 185,209 183,209 181,210 180,210 " />
<polyline fill="none" vector-effect="non-scaling-stroke" points="184,204 182,204 180,204 179,206 178,208 " />
<polyline fill="none" vector-effect="non-scaling-stroke" points="182,206 184,206 186,205 186,204 " />
<polyline fill="none" vector-effect="non-scaling-stroke" points="180,198 180,199 " />
<polyline fill="none" vector-effect="non-scaling-stroke" points="182,200 182,201 " />
<polyline fill="none" vector-effect="non-scaling-stroke" points="188,206 189,207 " />
<polyline fill="none" vector-effect="non-scaling-stroke" points="65,64 66,63 " />
<polyline fill="none" vector-effect="non-scaling-stroke" points="65,76 77,63 " />
<polyline fill="none" vector-effect="non-scaling-stroke" points="67,85 86,65 " />
<polyline fill="none" vector-effect="non-scaling-stroke" points="73,91 92,71 " />
<polyline fill="none" vector-effect="non-scaling-stroke" points="79,96 98,77 " />
<polyline fill="none" vector-effect="non-scaling-stroke" points="84,103 104,82 " />
<polyline fill="none" vector-effect="non-scaling-stroke" points="84,115 115,82 " />
<polyline fill="none" vector-effect="non-scaling-stroke" points="84,126 126,82 " />
<polyline fill="none" vector-effect="non-scaling-stroke" points="84,138 138,82 " />
<polyline fill="none" vector-effect="non-scaling-stroke" points="84,150 149,82 " />
<polyline fill="none" vector-effect="non-scaling-stroke" points="84,162 160,82 " />
<polyline fill="none" vector-effect="non-scaling-stroke" points="84,173 172,82 " />
<polyline fill="none" vector-effect="non-scaling-stroke" points="65,205 202,63 " />
<polyline fill="none" vector-effect="non-scaling-stroke" points="65,217 213,63 " />
<polyline fill="none" vector-effect="non-scaling-stroke" points="76,217 218,69 " />
<polyline fill="none" vector-effect="non-scaling-stroke" points="106,198 218,81 " />
<polyline fill="none" vector-effect="non-scaling-stroke" points="117,198 199,113 " />
<polyline fill="none" vector-effect="non-scaling-stroke" points="128,198 199,124 " />
<polyline fill="none" vector-effect="non-scaling-stroke" points="140,198 199,136 " />
<polyline fill="none" vector-effect="non-scaling-stroke" points="151,198 199,148 " />
<polyline fill="none" vector-effect="non-scaling-stroke" points="162,198 199,160 " />
<polyline fill="none" vector-effect="non-scaling-stroke" points="174,198 199,171 " />
<polyline fill="none" vector-effect="non-scaling-stroke" points="182,200 201,181 " />
<polyline fill="none" vector-effect="non-scaling-stroke" points="188,206 207,186 " />
<polyline fill="none" vector-effect="non-scaling-stroke" points="194,212 213,192 " />
<polyline fill="none" vector-effect="non-scaling-stroke" points="200,217 218,198 " />
<polyline fill="none" vector-effect="non-scaling-stroke" points="212,217 218,210 " />
<polyline fill="none" vector-effect="non-scaling-stroke" points="65,217 84,217 " />
<polyline fill="none" vector-effect="non-scaling-stroke" points="84,217 103,198 " />
<polyline fill="none" vector-effect="non-scaling-stroke" points="103,198 180,198 " />
<polyline fill="none" vector-effect="non-scaling-stroke" points="180,198 199,217 " />
<polyline fill="none" vector-effect="non-scaling-stroke" points="199,217 218,217 " />
<polyline fill="none" vector-effect="non-scaling-stroke" points="218,217 218,198 " />
<polyline fill="none" vector-effect="non-scaling-stroke" points="218,198 199,178 " />
<polyline fill="none" vector-effect="non-scaling-stroke" points="199,178 199,102 " />
<polyline fill="none" vector-effect="non-scaling-stroke" points="199,102 218,82 " />
<polyline fill="none" vector-effect="non-scaling-stroke" points="218,82 218,63 " />
<polyline fill="none" vector-effect="non-scaling-stroke" points="218,63 199,63 " />
<polyline fill="none" vector-effect="non-scaling-stroke" points="199,63 180,82 " />
<polyline fill="none" vector-effect="non-scaling-stroke" points="180,82 103,82 " />
<polyline fill="none" vector-effect="non-scaling-stroke" points="103,82 84,63 " />
<polyline fill="none" vector-effect="non-scaling-stroke" points="84,63 65,63 " />
<polyline fill="none" vector-effect="non-scaling-stroke" points="65,63 65,82 " />
<polyline fill="none" vector-effect="non-scaling-stroke" points="65,82 84,102 " />
<polyline fill="none" vector-effect="non-scaling-stroke" points="84,102 84,178 " />
<polyline fill="none" vector-effect="non-scaling-stroke" points="84,178 65,198 " />
<polyline fill="none" vector-effect="non-scaling-stroke" points="65,198 65,217 " />
</g>

<g fill="#000000" fill-opacity="1" stroke="none" transform="matrix(1,0,0,1,0,0)"
font-family="MS Shell Dlg 2" font-size="8.25" font-weight="400" font-style="normal" 
>
<path vector-effect="none" fill-rule="evenodd" d="M65.5,217 C65.5,217.276 65.2761,217.5 65,217.5 C64.7239,217.5 64.5,217.276 64.5,217 C64.5,216.724 64.7239,216.5 65,216.5 C65.2761,216.5 65.5,216.724 65.5,217 "/>
</g>

<g fill="none" stroke="#000000" stroke-opacity="1" stroke-width="1" stroke-linecap="round" stroke-linejoin="round" transform="matrix(1,0,0,1,0,0)"
font-family="MS Shell Dlg 2" font-size="8.25" font-weight="400" font-style="normal" 
>
<polyline fill="none" vector-effect="non-scaling-stroke" points="84,217 103,198 " />
<polyline fill="none" vector-effect="non-scaling-stroke" points="103,198 180,198 " />
<polyline fill="none" vector-effect="non-scaling-stroke" points="180,198 199,217 " />
<polyline fill="none" vector-effect="non-scaling-stroke" points="199,217 180,236 " />
<polyline fill="none" vector-effect="non-scaling-stroke" points="180,236 103,236 " />
<polyline fill="none" vector-effect="non-scaling-stroke" points="103,236 84,217 " />
</g>

<g fill="#000000" fill-opacity="1" stroke="none" transform="matrix(1,0,0,1,0,0)"
font-family="MS Shell Dlg 2" font-size="8.25" font-weight="400" font-style="normal" 
>
<path vector-effect="none" fill-rule="evenodd" d="M84.5,217 C84.5,217.276 84.2761,217.5 84,217.5 C83.7239,217.5 83.5,217.276 83.5,217 C83.5,216.724 83.7239,216.5 84,216.5 C84.2761,216.5 84.5,216.724 84.5,217 "/>
</g>

<g fill="none" stroke="#000000" stroke-opacity="1" stroke-width="1" stroke-linecap="round" stroke-linejoin="round" transform="matrix(1,0,0,1,0,0)"
font-family="MS Shell Dlg 2" font-size="8.25" font-weight="400" font-style="normal" 
>
<polyline fill="none" vector-effect="non-scaling-stroke" points="218,198 199,178 " />
<polyline fill="none" vector-effect="non-scaling-stroke" points="199,178 199,102 " />
<polyline fill="none" vector-effect="non-scaling-stroke" points="199,102 218,82 " />
</g>

<g fill="none" stroke="#000000" stroke-opacity="1" stroke-width="2" stroke-linecap="round" stroke-linejoin="round" transform="matrix(1,0,0,1,0,0)"
font-family="MS Shell Dlg 2" font-size="8.25" font-weight="400" font-style="normal" 
>
<polyline fill="none" vector-effect="none" points="218,198 199,178 " />
<polyline fill="none" vector-effect="none" points="199,178 199,102 " />
<polyline fill="none" vector-effect="none" points="199,102 218,82 " />
<polyline fill="none" vector-effect="none" points="84,63 65,63 " />
<polyline fill="none" vector-effect="none" points="65,63 65,82 " />
</g>

<g fill="none" stroke="#000000" stroke-opacity="1" stroke-width="1" stroke-linecap="round" stroke-linejoin="round" transform="matrix(1,0,0,1,0,0)"
font-family="MS Shell Dlg 2" font-size="8.25" font-weight="400" font-style="normal" 
>
<polyline fill="none" vector-effect="non-scaling-stroke" points="218,246 218,236 " />
<polyline fill="none" vector-effect="non-scaling-stroke" points="218,236 222,236 " />
<polyline fill="none" vector-effect="non-scaling-stroke" points="218,240 222,240 " />
<polyline fill="none" vector-effect="non-scaling-stroke" points="226,239 226,244 " />
<polyline fill="none" vector-effect="non-scaling-stroke" points="226,244 226,245 226,245 227,246 " />
<polyline fill="none" vector-effect="non-scaling-stroke" points="227,246 230,246 " />
<polyline fill="none" vector-effect="non-scaling-stroke" points="230,246 230,239 " />
<polyline fill="none" vector-effect="non-scaling-stroke" points="237,246 235,246 " />
<polyline fill="none" vector-effect="non-scaling-stroke" points="233,244 233,245 234,245 235,246 " />
<polyline fill="none" vector-effect="non-scaling-stroke" points="233,244 233,241 " />
<polyline fill="none" vector-effect="non-scaling-stroke" points="237,241 237,240 236,240 235,239 234,239 234,240 233,241 " />
<polyline fill="none" vector-effect="non-scaling-stroke" points="237,241 237,242 " />
<polyline fill="none" vector-effect="non-scaling-stroke" points="237,242 233,242 " />
<polyline fill="none" vector-effect="non-scaling-stroke" points="241,236 241,244 " />
<polyline fill="none" vector-effect="non-scaling-stroke" points="241,244 241,245 241,245 242,246 " />
<polyline fill="none" vector-effect="non-scaling-stroke" points="256,246 254,246 " />
<polyline fill="none" vector-effect="non-scaling-stroke" points="252,243 252,244 253,245 254,246 " />
<polyline fill="none" vector-effect="non-scaling-stroke" points="252,243 252,238 " />
<polyline fill="none" vector-effect="non-scaling-stroke" points="254,236 253,236 252,237 252,238 " />
<polyline fill="none" vector-effect="non-scaling-stroke" points="254,236 256,236 " />
<polyline fill="none" vector-effect="non-scaling-stroke" points="260,246 260,236 " />
<polyline fill="none" vector-effect="non-scaling-stroke" points="260,239 262,239 " />
<polyline fill="none" vector-effect="non-scaling-stroke" points="264,241 264,240 263,239 262,239 " />
<polyline fill="none" vector-effect="non-scaling-stroke" points="264,241 264,246 " />
<polyline fill="none" vector-effect="non-scaling-stroke" points="268,239 270,239 " />
<polyline fill="none" vector-effect="non-scaling-stroke" points="271,241 271,240 271,239 270,239 " />
<polyline fill="none" vector-effect="non-scaling-stroke" points="271,241 271,246 " />
<polyline fill="none" vector-effect="non-scaling-stroke" points="271,246 269,246 " />
<polyline fill="none" vector-effect="non-scaling-stroke" points="269,242 268,243 267,243 267,244 267,245 268,245 268,246 269,246 " />
<polyline fill="none" vector-effect="non-scaling-stroke" points="269,242 271,242 " />
<polyline fill="none" vector-effect="non-scaling-stroke" points="274,246 274,239 " />
<polyline fill="none" vector-effect="non-scaling-stroke" points="274,239 277,239 " />
<polyline fill="none" vector-effect="non-scaling-stroke" points="279,241 279,240 278,239 277,239 " />
<polyline fill="none" vector-effect="non-scaling-stroke" points="279,241 279,246 " />
<polyline fill="none" vector-effect="non-scaling-stroke" points="282,246 282,239 " />
<polyline fill="none" vector-effect="non-scaling-stroke" points="282,239 285,239 " />
<polyline fill="none" vector-effect="non-scaling-stroke" points="286,241 286,240 285,239 285,239 " />
<polyline fill="none" vector-effect="non-scaling-stroke" points="286,241 286,246 " />
<polyline fill="none" vector-effect="non-scaling-stroke" points="294,246 291,246 " />
<polyline fill="none" vector-effect="non-scaling-stroke" points="289,244 290,245 290,245 291,246 " />
<polyline fill="none" vector-effect="non-scaling-stroke" points="289,244 289,241 " />
<polyline fill="none" vector-effect="non-scaling-stroke" points="294,241 293,240 293,240 292,239 291,239 290,240 289,241 " />
<polyline fill="none" vector-effect="non-scaling-stroke" points="294,241 294,242 " />
<polyline fill="none" vector-effect="non-scaling-stroke" points="294,242 289,242 " />
<polyline fill="none" vector-effect="non-scaling-stroke" points="297,236 297,244 " />
<polyline fill="none" vector-effect="non-scaling-stroke" points="297,244 297,245 297,245 298,246 " />
<polyline fill="none" vector-effect="non-scaling-stroke" points="309,235 309,237 308,239 308,241 308,243 309,245 309,247 " />
<polyline fill="none" vector-effect="non-scaling-stroke" points="315,236 313,243 " />
<polyline fill="none" vector-effect="non-scaling-stroke" points="313,243 318,243 " />
<polyline fill="none" vector-effect="non-scaling-stroke" points="316,241 316,246 " />
<polyline fill="none" vector-effect="non-scaling-stroke" points="321,246 325,239 " />
<polyline fill="none" vector-effect="non-scaling-stroke" points="321,239 325,246 " />
<polyline fill="none" vector-effect="non-scaling-stroke" points="329,247 329,245 330,243 330,241 330,239 329,237 329,235 " />
<polyline fill="none" vector-effect="non-scaling-stroke" points="161,5 163,15 " />
<polyline fill="none" vector-effect="non-scaling-stroke" points="163,15 165,9 " />
<polyline fill="none" vector-effect="non-scaling-stroke" points="165,9 167,15 " />
<polyline fill="none" vector-effect="non-scaling-stroke" points="167,15 169,5 " />
<polyline fill="none" vector-effect="non-scaling-stroke" points="177,15 174,15 " />
<polyline fill="none" vector-effect="non-scaling-stroke" points="172,13 172,14 173,15 174,15 " />
<polyline fill="none" vector-effect="non-scaling-stroke" points="172,13 172,11 " />
<polyline fill="none" vector-effect="non-scaling-stroke" points="177,11 176,10 176,9 175,9 174,9 173,10 172,11 " />
<polyline fill="none" vector-effect="non-scaling-stroke" points="177,11 177,12 " />
<polyline fill="none" vector-effect="non-scaling-stroke" points="177,12 172,12 " />
<polyline fill="none" vector-effect="non-scaling-stroke" points="181,15 181,5 " />
<polyline fill="none" vector-effect="non-scaling-stroke" points="180,9 183,9 " />
<polyline fill="none" vector-effect="non-scaling-stroke" points="187,15 187,5 " />
<polyline fill="none" vector-effect="non-scaling-stroke" points="186,9 189,9 " />
<polyline fill="none" vector-effect="non-scaling-stroke" points="197,15 194,15 " />
<polyline fill="none" vector-effect="non-scaling-stroke" points="193,13 193,14 193,15 194,15 " />
<polyline fill="none" vector-effect="non-scaling-stroke" points="193,13 193,11 " />
<polyline fill="none" vector-effect="non-scaling-stroke" points="197,11 197,10 196,9 195,9 194,9 193,10 193,11 " />
<polyline fill="none" vector-effect="non-scaling-stroke" points="197,11 197,12 " />
<polyline fill="none" vector-effect="non-scaling-stroke" points="197,12 193,12 " />
<polyline fill="none" vector-effect="non-scaling-stroke" points="204,5 204,15 " />
<polyline fill="none" vector-effect="non-scaling-stroke" points="204,15 202,15 " />
<polyline fill="none" vector-effect="non-scaling-stroke" points="200,13 200,14 201,15 202,15 " />
<polyline fill="none" vector-effect="non-scaling-stroke" points="200,13 200,10 " />
<polyline fill="none" vector-effect="non-scaling-stroke" points="202,9 201,9 200,9 200,10 " />
<polyline fill="none" vector-effect="non-scaling-stroke" points="202,9 204,9 " />
<polyline fill="none" vector-effect="non-scaling-stroke" points="215,15 215,5 " />
<polyline fill="none" vector-effect="non-scaling-stroke" points="215,5 217,5 " />
<polyline fill="none" vector-effect="non-scaling-stroke" points="217,11 219,10 220,10 220,8 220,7 219,6 218,6 217,5 " />
<polyline fill="none" vector-effect="non-scaling-stroke" points="217,11 215,11 " />
<polyline fill="none" vector-effect="non-scaling-stroke" points="228,15 225,15 " />
<polyline fill="none" vector-effect="non-scaling-stroke" points="223,13 223,14 224,15 225,15 " />
<polyline fill="none" vector-effect="non-scaling-stroke" points="223,13 223,11 " />
<polyline fill="none" vector-effect="non-scaling-stroke" points="228,11 227,10 227,9 226,9 224,9 224,10 223,11 " />
<polyline fill="none" vector-effect="non-scaling-stroke" points="228,11 228,12 " />
<polyline fill="none" vector-effect="non-scaling-stroke" points="228,12 223,12 " />
<polyline fill="none" vector-effect="non-scaling-stroke" points="231,15 231,9 " />
<polyline fill="none" vector-effect="non-scaling-stroke" points="231,9 234,9 " />
<polyline fill="none" vector-effect="non-scaling-stroke" points="234,9 234,10 " />
<polyline fill="none" vector-effect="non-scaling-stroke" points="237,15 237,9 " />
<polyline fill="none" vector-effect="non-scaling-stroke" points="237,6 237,5 " />
<polyline fill="none" vector-effect="non-scaling-stroke" points="244,15 244,9 " />
<polyline fill="none" vector-effect="non-scaling-stroke" points="240,15 240,9 " />
<polyline fill="none" vector-effect="non-scaling-stroke" points="240,9 245,9 " />
<polyline fill="none" vector-effect="non-scaling-stroke" points="247,10 247,10 246,9 245,9 " />
<polyline fill="none" vector-effect="non-scaling-stroke" points="247,10 247,15 " />
<polyline fill="none" vector-effect="non-scaling-stroke" points="254,15 252,15 " />
<polyline fill="none" vector-effect="non-scaling-stroke" points="250,13 250,14 251,15 251,15 252,15 " />
<polyline fill="none" vector-effect="non-scaling-stroke" points="250,13 250,11 " />
<polyline fill="none" vector-effect="non-scaling-stroke" points="254,11 254,10 253,9 252,9 251,9 250,10 250,11 " />
<polyline fill="none" vector-effect="non-scaling-stroke" points="254,11 254,12 " />
<polyline fill="none" vector-effect="non-scaling-stroke" points="254,12 250,12 " />
<polyline fill="none" vector-effect="non-scaling-stroke" points="258,15 258,5 " />
<polyline fill="none" vector-effect="non-scaling-stroke" points="257,9 261,9 " />
<polyline fill="none" vector-effect="non-scaling-stroke" points="268,15 265,15 " />
<polyline fill="none" vector-effect="non-scaling-stroke" points="264,13 264,14 265,15 265,15 " />
<polyline fill="none" vector-effect="non-scaling-stroke" points="264,13 264,11 " />
<polyline fill="none" vector-effect="non-scaling-stroke" points="268,11 268,10 267,9 266,9 265,9 264,10 264,11 " />
<polyline fill="none" vector-effect="non-scaling-stroke" points="268,11 268,12 " />
<polyline fill="none" vector-effect="non-scaling-stroke" points="268,12 264,12 " />
<polyline fill="none" vector-effect="non-scaling-stroke" points="271,15 271,9 " />
<polyline fill="none" vector-effect="non-scaling-stroke" points="271,9 274,9 " />
<polyline fill="none" vector-effect="non-scaling-stroke" points="274,9 274,10 " />
<polyline fill="none" vector-effect="non-scaling-stroke" points="286,4 285,6 285,8 285,10 285,12 285,14 286,16 " />
<polyline fill="none" vector-effect="non-scaling-stroke" points="291,5 289,13 " />
<polyline fill="none" vector-effect="non-scaling-stroke" points="289,13 294,13 " />
<polyline fill="none" vector-effect="non-scaling-stroke" points="293,11 293,15 " />
<polyline fill="none" vector-effect="non-scaling-stroke" points="298,15 302,9 " />
<polyline fill="none" vector-effect="non-scaling-stroke" points="298,9 302,15 " />
<polyline fill="none" vector-effect="non-scaling-stroke" points="305,16 306,14 306,12 306,10 306,8 306,6 305,4 " />
<polyline fill="none" vector-effect="non-scaling-stroke" points="45,34 49,34 " />
<polyline fill="none" vector-effect="non-scaling-stroke" points="49,34 50,34 50,33 51,32 " />
<polyline fill="none" vector-effect="non-scaling-stroke" points="51,32 51,27 " />
<polyline fill="none" vector-effect="non-scaling-stroke" points="51,27 50,26 50,25 49,25 " />
<polyline fill="none" vector-effect="non-scaling-stroke" points="49,25 45,25 " />
<polyline fill="none" vector-effect="non-scaling-stroke" points="45,25 45,34 " />
<polyline fill="none" vector-effect="non-scaling-stroke" points="54,34 54,28 " />
<polyline fill="none" vector-effect="non-scaling-stroke" points="54,28 57,28 " />
<polyline fill="none" vector-effect="non-scaling-stroke" points="57,28 57,29 " />
<polyline fill="none" vector-effect="non-scaling-stroke" points="65,28 61,37 " />
<polyline fill="none" vector-effect="non-scaling-stroke" points="61,37 60,37 " />
<polyline fill="none" vector-effect="non-scaling-stroke" points="60,28 62,34 " />
<polyline fill="none" vector-effect="non-scaling-stroke" points="75,34 75,25 " />
<polyline fill="none" vector-effect="non-scaling-stroke" points="75,25 78,25 " />
<polyline fill="none" vector-effect="non-scaling-stroke" points="78,30 79,30 80,29 80,28 80,26 79,25 78,25 " />
<polyline fill="none" vector-effect="non-scaling-stroke" points="78,30 75,30 " />
<polyline fill="none" vector-effect="non-scaling-stroke" points="88,34 85,34 " />
<polyline fill="none" vector-effect="non-scaling-stroke" points="83,33 84,33 84,34 85,34 " />
<polyline fill="none" vector-effect="non-scaling-stroke" points="83,33 83,30 " />
<polyline fill="none" vector-effect="non-scaling-stroke" points="88,30 87,29 87,28 86,28 85,28 84,29 83,30 " />
<polyline fill="none" vector-effect="non-scaling-stroke" points="88,30 88,31 " />
<polyline fill="none" vector-effect="non-scaling-stroke" points="88,31 83,31 " />
<polyline fill="none" vector-effect="non-scaling-stroke" points="91,34 91,28 " />
<polyline fill="none" vector-effect="non-scaling-stroke" points="91,28 94,28 " />
<polyline fill="none" vector-effect="non-scaling-stroke" points="94,28 94,29 " />
<polyline fill="none" vector-effect="non-scaling-stroke" points="97,34 97,28 " />
</g>

<g fill="#000000" fill-opacity="1" stroke="none" transform="matrix(1,0,0,1,0,0)"
font-family="MS Shell Dlg 2" font-size="8.25" font-weight="400" font-style="normal" 
>
<path vector-effect="none" fill-rule="evenodd" d="M97.5,25 C97.5,25.2761 97.2761,25.5 97,25.5 C96.7239,25.5 96.5,25.2761 96.5,25 C96.5,24.7239 96.7239,24.5 97,24.5 C97.2761,24.5 97.5,24.7239 97.5,25 "/>
</g>

<g fill="none" stroke="#000000" stroke-opacity="1" stroke-width="1" stroke-linecap="round" stroke-linejoin="round" transform="matrix(1,0,0,1,0,0)"
font-family="MS Shell Dlg 2" font-size="8.25" font-weight="400" font-style="normal" 
>
<polyline fill="none" vector-effect="non-scaling-stroke" points="104,34 104,28 " />
<polyline fill="none" vector-effect="non-scaling-stroke" points="101,34 101,28 " />
<polyline fill="none" vector-effect="non-scaling-stroke" points="101,28 105,28 " />
<polyline fill="none" vector-effect="non-scaling-stroke" points="107,29 107,29 106,28 105,28 " />
<polyline fill="none" vector-effect="non-scaling-stroke" points="107,29 107,34 " />
<polyline fill="none" vector-effect="non-scaling-stroke" points="114,34 112,34 " />
<polyline fill="none" vector-effect="non-scaling-stroke" points="110,33 110,33 111,34 112,34 " />
<polyline fill="none" vector-effect="non-scaling-stroke" points="110,33 110,30 " />
<polyline fill="none" vector-effect="non-scaling-stroke" points="114,30 114,29 113,28 112,28 111,28 111,29 110,30 " />
<polyline fill="none" vector-effect="non-scaling-stroke" points="114,30 114,31 " />
<polyline fill="none" vector-effect="non-scaling-stroke" points="114,31 110,31 " />
<polyline fill="none" vector-effect="non-scaling-stroke" points="119,34 119,25 " />
<polyline fill="none" vector-effect="non-scaling-stroke" points="118,28 121,28 " />
<polyline fill="none" vector-effect="non-scaling-stroke" points="128,34 126,34 " />
<polyline fill="none" vector-effect="non-scaling-stroke" points="124,33 124,33 125,34 126,34 " />
<polyline fill="none" vector-effect="non-scaling-stroke" points="124,33 124,30 " />
<polyline fill="none" vector-effect="non-scaling-stroke" points="128,30 128,29 127,28 126,28 125,28 124,29 124,30 " />
<polyline fill="none" vector-effect="non-scaling-stroke" points="128,30 128,31 " />
<polyline fill="none" vector-effect="non-scaling-stroke" points="128,31 124,31 " />
<polyline fill="none" vector-effect="non-scaling-stroke" points="131,34 131,28 " />
<polyline fill="none" vector-effect="non-scaling-stroke" points="131,28 135,28 " />
<polyline fill="none" vector-effect="non-scaling-stroke" points="135,28 135,29 " />
<polyline fill="none" vector-effect="non-scaling-stroke" points="146,24 146,26 145,27 145,29 145,31 146,33 146,35 " />
<polyline fill="none" vector-effect="non-scaling-stroke" points="151,25 149,32 " />
<polyline fill="none" vector-effect="non-scaling-stroke" points="149,32 155,32 " />
<polyline fill="none" vector-effect="non-scaling-stroke" points="153,30 153,34 " />
<polyline fill="none" vector-effect="non-scaling-stroke" points="158,34 162,28 " />
<polyline fill="none" vector-effect="non-scaling-stroke" points="158,28 162,34 " />
<polyline fill="none" vector-effect="non-scaling-stroke" points="165,35 166,33 166,31 166,29 166,27 166,26 165,24 " />
<polyline fill="none" vector-effect="non-scaling-stroke" points="199,25 276,25 " />
<polyline fill="none" vector-effect="non-scaling-stroke" points="276,25 199,121 " />
<polyline fill="none" vector-effect="non-scaling-stroke" points="103,44 45,44 " />
<polyline fill="none" vector-effect="non-scaling-stroke" points="45,44 63,73 " />
<polyline fill="none" vector-effect="non-scaling-stroke" points="330,249 218,249 " />
<polyline fill="none" vector-effect="non-scaling-stroke" points="218,249 187,232 " />
<polyline fill="none" vector-effect="non-scaling-stroke" points="180,226 186,242 " />
<polyline fill="none" vector-effect="non-scaling-stroke" points="186,242 196,228 " />
<polyline fill="none" vector-effect="non-scaling-stroke" points="196,228 180,226 " />
<polyline fill="none" vector-effect="non-scaling-stroke" points="199,119 213,115 " />
<polyline fill="none" vector-effect="non-scaling-stroke" points="213,115 203,105 " />
<polyline fill="none" vector-effect="non-scaling-stroke" points="203,105 199,119 " />
<polyline fill="none" vector-effect="non-scaling-stroke" points="63,73 63,65 " />
<polyline fill="none" vector-effect="non-scaling-stroke" points="63,65 56,69 " />
<polyline fill="none" vector-effect="non-scaling-stroke" points="56,69 63,73 " />
<polyline fill="none" vector-effect="non-scaling-stroke" points="7,129 9,130 10,130 " />
<polyline fill="none" vector-effect="non-scaling-stroke" points="10,130 11,130 12,129 12,128 12,127 11,126 " />
<polyline fill="none" vector-effect="non-scaling-stroke" points="11,126 8,125 " />
<polyline fill="none" vector-effect="non-scaling-stroke" points="9,121 8,121 7,122 7,123 7,124 8,125 " />
<polyline fill="none" vector-effect="non-scaling-stroke" points="12,121 10,121 9,121 " />
<polyline fill="none" vector-effect="non-scaling-stroke" points="17,130 17,121 " />
<polyline fill="none" vector-effect="non-scaling-stroke" points="15,124 19,124 " />
<polyline fill="none" vector-effect="non-scaling-stroke" points="22,130 22,124 " />
<polyline fill="none" vector-effect="non-scaling-stroke" points="22,124 25,124 " />
<polyline fill="none" vector-effect="non-scaling-stroke" points="25,124 25,125 " />
<polyline fill="none" vector-effect="non-scaling-stroke" points="28,130 28,124 " />
</g>

<g fill="#000000" fill-opacity="1" stroke="none" transform="matrix(1,0,0,1,0,0)"
font-family="MS Shell Dlg 2" font-size="8.25" font-weight="400" font-style="normal" 
>
<path vector-effect="none" fill-rule="evenodd" d="M28.5,121 C28.5,121.276 28.2761,121.5 28,121.5 C27.7239,121.5 27.5,121.276 27.5,121 C27.5,120.724 27.7239,120.5 28,120.5 C28.2761,120.5 28.5,120.724 28.5,121 "/>
</g>

<g fill="none" stroke="#000000" stroke-opacity="1" stroke-width="1" stroke-linecap="round" stroke-linejoin="round" transform="matrix(1,0,0,1,0,0)"
font-family="MS Shell Dlg 2" font-size="8.25" font-weight="400" font-style="normal" 
>
<polyline fill="none" vector-effect="non-scaling-stroke" points="31,130 31,124 " />
<polyline fill="none" vector-effect="non-scaling-stroke" points="31,124 34,124 " />
<polyline fill="none" vector-effect="non-scaling-stroke" points="36,126 36,125 35,124 34,124 " />
<polyline fill="none" vector-effect="non-scaling-stroke" points="36,126 36,130 " />
<polyline fill="none" vector-effect="non-scaling-stroke" points="39,134 42,134 " />
<polyline fill="none" vector-effect="non-scaling-stroke" points="42,134 42,133 43,133 43,132 " />
<polyline fill="none" vector-effect="non-scaling-stroke" points="43,132 43,124 " />
<polyline fill="none" vector-effect="non-scaling-stroke" points="43,124 41,124 " />
<polyline fill="none" vector-effect="non-scaling-stroke" points="41,124 40,124 39,125 39,125 39,126 " />
<polyline fill="none" vector-effect="non-scaling-stroke" points="39,126 39,129 " />
<polyline fill="none" vector-effect="non-scaling-stroke" points="39,129 39,129 40,130 40,130 41,130 " />
<polyline fill="none" vector-effect="non-scaling-stroke" points="41,130 43,130 " />
<polyline fill="none" vector-effect="non-scaling-stroke" points="51,130 48,130 " />
<polyline fill="none" vector-effect="non-scaling-stroke" points="46,129 47,129 47,130 48,130 " />
<polyline fill="none" vector-effect="non-scaling-stroke" points="46,129 46,126 " />
<polyline fill="none" vector-effect="non-scaling-stroke" points="51,126 50,125 50,124 49,124 48,124 47,125 46,126 " />
<polyline fill="none" vector-effect="non-scaling-stroke" points="51,126 51,127 " />
<polyline fill="none" vector-effect="non-scaling-stroke" points="51,127 46,127 " />
<polyline fill="none" vector-effect="non-scaling-stroke" points="54,130 54,124 " />
<polyline fill="none" vector-effect="non-scaling-stroke" points="54,124 57,124 " />
<polyline fill="none" vector-effect="non-scaling-stroke" points="57,124 57,125 " />
<polyline fill="none" vector-effect="non-scaling-stroke" points="10,141 7,141 " />
<polyline fill="none" vector-effect="non-scaling-stroke" points="10,141 11,141 11,140 12,139 12,138 11,137 10,137 " />
<polyline fill="none" vector-effect="non-scaling-stroke" points="10,137 7,137 " />
<polyline fill="none" vector-effect="non-scaling-stroke" points="7,137 7,146 " />
<polyline fill="none" vector-effect="non-scaling-stroke" points="7,146 10,146 " />
<polyline fill="none" vector-effect="non-scaling-stroke" points="10,146 11,146 12,145 12,144 12,143 11,142 10,141 " />
<polyline fill="none" vector-effect="non-scaling-stroke" points="15,144 16,145 16,146 17,146 18,146 19,145 20,144 " />
<polyline fill="none" vector-effect="non-scaling-stroke" points="15,144 15,142 " />
<polyline fill="none" vector-effect="non-scaling-stroke" points="20,142 19,141 19,140 18,140 17,140 16,141 15,142 " />
<polyline fill="none" vector-effect="non-scaling-stroke" points="20,142 20,144 " />
<polyline fill="none" vector-effect="non-scaling-stroke" points="27,137 27,146 " />
<polyline fill="none" vector-effect="non-scaling-stroke" points="27,146 25,146 " />
<polyline fill="none" vector-effect="non-scaling-stroke" points="23,145 23,145 24,146 24,146 25,146 " />
<polyline fill="none" vector-effect="non-scaling-stroke" points="23,145 23,142 " />
<polyline fill="none" vector-effect="non-scaling-stroke" points="25,140 24,140 23,141 23,141 23,142 " />
<polyline fill="none" vector-effect="non-scaling-stroke" points="25,140 27,140 " />
<polyline fill="none" vector-effect="non-scaling-stroke" points="35,140 31,150 " />
<polyline fill="none" vector-effect="non-scaling-stroke" points="31,150 30,150 " />
<polyline fill="none" vector-effect="non-scaling-stroke" points="30,140 33,146 " />
<polyline fill="none" vector-effect="non-scaling-stroke" points="7,150 57,150 " />
<polyline fill="none" vector-effect="non-scaling-stroke" points="57,150 141,140 " />
<polyline fill="none" vector-effect="non-scaling-stroke" points="149,139 137,134 " />
<polyline fill="none" vector-effect="non-scaling-stroke" points="137,134 139,147 " />
<polyline fill="none" vector-effect="non-scaling-stroke" points="139,147 149,139 " />
</g>

<g fill="none" stroke="#000000" stroke-opacity="1" stroke-width="2" stroke-linecap="round" stroke-linejoin="round" transform="matrix(1,0,0,1,0,0)"
font-family="MS Shell Dlg 2" font-size="8.25" font-weight="400" font-style="normal" 
>
<polyline fill="none" vector-effect="none" points="84,217 91,217 " />
<polyline fill="none" vector-effect="none" points="100,217 117,217 " />
<polyline fill="none" vector-effect="none" points="125,217 126,217 " />
<polyline fill="none" vector-effect="none" points="135,217 152,217 " />
<polyline fill="none" vector-effect="none" points="160,217 177,217 " />
<polyline fill="none" vector-effect="none" points="186,217 187,217 " />
<polyline fill="none" vector-effect="none" points="195,217 199,217 " />
</g>
</g>
</svg>
